<svg xmlns="http://www.w3.org/2000/svg" xmlns:xlink="http://www.w3.org/1999/xlink" viewBox="0 0 457.42 302"><defs><style>.cls-1,.cls-13,.cls-2{stroke:#231f20;}.cls-1{stroke-linecap:round;stroke-width:2px;fill:url(#radial-gradient);}.cls-1,.cls-11,.cls-13,.cls-14,.cls-2{stroke-miterlimit:10;}.cls-13,.cls-14,.cls-2{fill:none;}.cls-10,.cls-12,.cls-3,.cls-8{font-size:30px;}.cls-10,.cls-3,.cls-7,.cls-8{fill:#231f20;}.cls-12,.cls-3,.cls-8{font-family:CMUSerif-Italic, CMU Serif;}.cls-12,.cls-4,.cls-8{font-style:italic;}.cls-10,.cls-5{font-family:CMUSerif-Roman, CMU Serif;}.cls-6{font-family:DejaVuSans-Oblique, DejaVu Sans;}.cls-9{fill:#fff;}.cls-11{fill:#dceed8;}.cls-11,.cls-14{stroke:#009444;}.cls-12{fill:#009444;}.cls-13{stroke-dasharray:12.31 12.31;}</style><radialGradient id="radial-gradient" cx="199.42" cy="151" r="150" gradientUnits="userSpaceOnUse"><stop offset="0.73" stop-color="#fff"/><stop offset="1" stop-color="#e5e5e5"/></radialGradient></defs><title>particle-in-a-sphere</title><g id="Layer_2" data-name="Layer 2"><g id="Layer_1-2" data-name="Layer 1"><circle class="cls-1" cx="199.42" cy="151" r="150"/><path class="cls-2" d="M349.42,151c0,19.48-67.16,35.26-150,35.26s-150-15.79-150-35.26"/><text class="cls-3" transform="translate(384.82 57.77)"><tspan class="cls-4">U</tspan><tspan class="cls-5" x="22.29" y="0">=</tspan><tspan class="cls-6" x="45.63" y="0">∞</tspan></text><text class="cls-3" transform="translate(167.42 57.77)"><tspan class="cls-4">U</tspan><tspan class="cls-5" x="22.29" y="0">=0</tspan></text><circle class="cls-7" cx="349.42" cy="151" r="3.5"/><text class="cls-8" transform="translate(360.82 195.77)">R</text><circle class="cls-9" cx="198.82" cy="185.5" r="16"/><text class="cls-10" transform="translate(190.82 195.77)">0</text><text class="cls-8" transform="translate(439.82 195.77)">r</text><path class="cls-11" d="M49.42,151c29.43-19.41,88.2-63.22,149.53-63.22S319.52,131.91,349.42,151"/><text class="cls-12" transform="translate(0 58.76)">ψ(r)</text><circle class="cls-7" cx="199.42" cy="151" r="3.5"/><line class="cls-2" y1="151" x2="448.47" y2="151"/><polygon class="cls-7" points="444.25 156.56 446.61 151 444.25 145.44 457.42 151 444.25 156.56"/><path class="cls-2" d="M49.42,151a9.91,9.91,0,0,1,1.88-5.6"/><path class="cls-13" d="M60.67,137.57c22.46-12.82,76.12-21.84,138.75-21.84,68,0,125.5,10.65,143.86,25.25"/><path class="cls-2" d="M347.54,145.4a9.91,9.91,0,0,1,1.88,5.6"/><path class="cls-14" d="M30.82,73.5c24,16,74.71,8.81,88.86,34.91"/></g></g></svg>