<svg xmlns="http://www.w3.org/2000/svg" xmlns:xlink="http://www.w3.org/1999/xlink" viewBox="0 0 457.42 205.88"><defs><style>.cls-1,.cls-7{stroke:#231f20;}.cls-1,.cls-2,.cls-7{stroke-miterlimit:10;}.cls-1{stroke-width:2px;fill:url(#linear-gradient);}.cls-2{fill:#dceed8;stroke:#009444;}.cls-10,.cls-11,.cls-3,.cls-9{font-size:30px;}.cls-10,.cls-3,.cls-8,.cls-9{fill:#231f20;}.cls-11,.cls-3,.cls-9{font-family:CMUSerif-Italic, CMU Serif;}.cls-11,.cls-4,.cls-9{font-style:italic;}.cls-10,.cls-5{font-family:CMUSerif-Roman, CMU Serif;}.cls-6{font-family:DejaVuSans-Oblique, DejaVu Sans;}.cls-7{fill:none;}.cls-11{fill:#009444;}</style><linearGradient id="linear-gradient" x1="228.71" x2="228.71" y2="149.5" gradientUnits="userSpaceOnUse"><stop offset="0" stop-color="#fff"/><stop offset="1" stop-color="#e5e5e5"/></linearGradient></defs><title>particle-in-a-box</title><g id="Layer_2" data-name="Layer 2"><g id="Layer_1-2" data-name="Layer 1"><polyline class="cls-1" points="319.42 0 319.42 149.5 138 149.5 138 0"/><path class="cls-2" d="M137.92,149c17.81-21.29,53.36-69.33,90.46-69.33s72.94,48.39,91,69.33"/><text class="cls-3" transform="translate(384.82 48.61)"><tspan class="cls-4">U</tspan><tspan class="cls-5" x="22.29" y="0">=</tspan><tspan class="cls-6" x="45.63" y="0">∞</tspan></text><text class="cls-3" transform="translate(0 48.61)"><tspan class="cls-4">U</tspan><tspan class="cls-5" x="22.29" y="0">=</tspan><tspan class="cls-6" x="45.63" y="0">∞</tspan></text><line class="cls-7" y1="149.5" x2="448.47" y2="149.5"/><polygon class="cls-8" points="444.25 155.06 446.61 149.5 444.25 143.94 457.42 149.5 444.25 155.06"/><circle class="cls-8" cx="138.42" cy="149.5" r="3.5"/><circle class="cls-8" cx="319.42" cy="149.5" r="3.5"/><text class="cls-9" transform="translate(309.92 194.27)">L</text><text class="cls-10" transform="translate(129.82 194.27)">0</text><text class="cls-9" transform="translate(439.82 194.27)">x</text><text class="cls-3" transform="translate(197.41 48.61)"><tspan class="cls-4">U</tspan><tspan class="cls-5" x="22.29" y="0">=0</tspan></text><text class="cls-11" transform="translate(200.82 127.27)">ψ(x)</text></g></g></svg>