<svg xmlns="http://www.w3.org/2000/svg" viewBox="0 0 457.42 302"><defs><style>.cls-1{fill:#ededed;stroke-width:2px;}.cls-1,.cls-10,.cls-5,.cls-8{stroke:#231f20;}.cls-1,.cls-8{stroke-linecap:round;}.cls-1,.cls-10,.cls-12,.cls-5,.cls-7,.cls-8{stroke-miterlimit:10;}.cls-2{fill:#fff;}.cls-11,.cls-3,.cls-4,.cls-9{font-size:30px;}.cls-3,.cls-4,.cls-6,.cls-9{fill:#231f20;}.cls-11,.cls-3{font-family:CMUSerif-Italic, CMU Serif;font-style:italic;}.cls-4{font-family:DejaVuSans-Oblique, DejaVu Sans;}.cls-10,.cls-12,.cls-5,.cls-8{fill:none;}.cls-7{fill:#dceed8;}.cls-12,.cls-7{stroke:#009444;}.cls-9{font-family:CMUSerif-RomanSlanted, CMU Serif Extra;}.cls-10{stroke-dasharray:12.31 12.31;}.cls-11{fill:#009444;}</style></defs><title>tao-eldrup</title><g id="Layer_2" data-name="Layer 2"><g id="Layer_1-2" data-name="Layer 1"><circle class="cls-1" cx="199.42" cy="151" r="150"/><circle class="cls-2" cx="199.42" cy="151" r="106.07"/><text class="cls-3" transform="translate(360.82 195.77)">R</text><text class="cls-4" transform="translate(382.69 205.76) scale(0.58)">∞</text><text class="cls-3" transform="translate(439.82 195.77)">r</text><line class="cls-5" y1="151" x2="448.47" y2="151"/><polygon class="cls-6" points="444.25 156.56 446.61 151 444.25 145.44 457.42 151 444.25 156.56"/><path class="cls-7" d="M50.82,150.34C80.25,130.93,139,87.13,200.35,87.13s120.57,44.12,150.47,63.22"/><path class="cls-5" d="M349.42,151c0,19.48-67.16,35.26-150,35.26s-150-15.79-150-35.26"/><line class="cls-8" x1="264.09" y1="243.57" x2="282.11" y2="269.37"/><polygon class="cls-6" points="262.66 248 264.8 244.59 268.73 243.75 260.67 238.68 262.66 248"/><polygon class="cls-6" points="277.46 269.19 281.4 268.35 283.53 264.94 285.53 274.26 277.46 269.19"/><text class="cls-3" transform="translate(190.82 221.91)">R</text><circle class="cls-6" cx="349.42" cy="151" r="3.5"/><text class="cls-9" transform="translate(239.64 279.14)">δ</text><path class="cls-5" d="M49.42,151a9.91,9.91,0,0,1,1.88-5.6"/><path class="cls-10" d="M60.67,137.57c22.46-12.82,76.12-21.84,138.75-21.84,68,0,125.5,10.65,143.86,25.25"/><path class="cls-5" d="M347.54,145.4a9.91,9.91,0,0,1,1.88,5.6"/><line class="cls-8" x1="199.42" y1="151" x2="256.95" y2="233.35"/><polygon class="cls-6" points="252.3 233.17 256.24 232.34 258.37 228.93 260.36 238.24 252.3 233.17"/><circle class="cls-6" cx="199.42" cy="151" r="3.5"/><text class="cls-11" transform="translate(0 57.58)">ψ(r)</text><path class="cls-12" d="M30.82,72.32c24,16,74.71,8.81,88.86,34.91"/><circle class="cls-5" cx="199.42" cy="151" r="106.07"/></g></g></svg>