<?xml version="1.0" encoding="UTF-8"?>
<svg width="32px" height="32px" viewBox="0 0 32 32" version="1.1" xmlns="http://www.w3.org/2000/svg" xmlns:xlink="http://www.w3.org/1999/xlink">
    <!-- Generator: Sketch 58 (84663) - https://sketch.com -->
    <title>icon/rg</title>
    <desc>Created with Sketch.</desc>
    <g id="icon/rg" stroke="none" stroke-width="1" fill="none" fill-rule="evenodd">
        <path d="M13.7556561,19.7239819 C14.7909502,19.3257919 17.9366516,17.7927602 17.9366516,14.3484163 C17.9366516,10.9040724 15.5076923,9.37104072 12.959276,9.37104072 C10.4108597,9.37104072 4,9.37104072 4,9.37104072 C4,9.37104072 4,9.96832579 4,10.1674208 C5.47330317,10.4660633 6.38914027,10.6054299 6.38914027,12.3574661 C6.38914027,13.6316742 6.38914027,24.5221719 6.38914027,25.6968326 C6.38914027,27.0307692 5.33393665,27.6877828 4,27.6877828 C4,28.2253394 4,28.6832579 4,28.6832579 C4,28.6832579 6.26968326,28.4841629 7.78280543,28.4841629 C9.2959276,28.4841629 11.5656109,28.6832579 11.5656109,28.6832579 C11.5656109,28.6832579 11.5656109,28.1457014 11.5656109,27.6877828 C9.73393665,27.6877828 8.77828054,27.2497738 8.77828054,25.6968326 C8.77828054,24.5022624 8.77828054,19.9230769 8.77828054,19.9230769 L11.1674208,19.9230769 C11.1674208,19.9230769 12.6606335,22.5312217 14.7511312,25.6968326 C16.841629,28.8624434 19.4696833,29.1809955 21.321267,28.6832579 C21.321267,28.5239819 21.321267,28.0461538 21.321267,27.8868778 C18.2751131,27.8868778 14.5321267,20.99819 13.7556561,19.7239819 Z M8.77828054,18.5294118 L8.77828054,10.7647059 C8.77828054,10.7647059 10.6298643,10.7647059 12.1628959,10.7647059 C13.6959276,10.7647059 15.3484163,12.3375566 15.3484163,14.5475113 C15.3484163,16.7574661 13.2977376,18.5294118 11.5656109,18.5294118 C9.83348416,18.5294118 8.77828054,18.5294118 8.77828054,18.5294118 Z" id="Shape" fill="#FFFFFF"></path>
        <path d="M24.3076923,7.97737557 L27.6923077,7.97737557 C27.6923077,7.97737557 27.6923077,8.45520362 27.6923077,10.1674208 C27.6923077,12.1782805 26.5176471,13.5520362 23.9095023,13.5520362 C21.321267,13.5520362 20.3257919,11.8 20.3257919,9.96832579 C20.3257919,8.13665158 20.3257919,7.73846154 20.3257919,6.38461538 C20.3257919,5.03076923 21.3013575,3 24.1085973,3 C26.9158371,3 27.4932127,4.99095023 27.4932127,4.99095023 L26.2986425,5.78733032 C26.2986425,5.78733032 25.681448,4.39366516 24.1085973,4.39366516 C23.2325792,4.39366516 21.918552,5.20995475 21.918552,6.58371041 C21.918552,7.95746606 21.918552,8.73393665 21.918552,9.57013575 C21.918552,11.0633484 22.6552036,12.158371 23.9095023,12.158371 C25.4823529,12.158371 26.2986425,10.9438914 26.2986425,9.1719457 C25.8208145,9.1719457 24.3076923,9.1719457 24.3076923,9.1719457 L24.3076923,7.97737557 Z" id="Path" fill="#FFFFFF"></path>
    </g>
</svg>