<?xml version="1.0" standalone="no"?>
<!DOCTYPE svg PUBLIC "-//W3C//DTD SVG 20010904//EN"
 "http://www.w3.org/TR/2001/REC-SVG-20010904/DTD/svg10.dtd">
<svg version="1.0" xmlns="http://www.w3.org/2000/svg"
 width="700.000000pt" height="700.000000pt" viewBox="0 0 700.000000 700.000000"
 preserveAspectRatio="xMidYMid meet">
<metadata>
Created by potrace 1.11, written by Peter Selinger 2001-2013
</metadata>
<g transform="translate(0.000000,700.000000) scale(0.100000,-0.100000)"
fill="#000000" stroke="none">
<path d="M3345 6944 c-33 -7 -85 -22 -114 -34 -43 -16 -295 -157 -564 -314
-61 -35 -992 -572 -1057 -610 -36 -20 -72 -41 -80 -46 -8 -6 -98 -57 -200
-116 -102 -58 -210 -120 -240 -139 -30 -18 -77 -45 -105 -60 -150 -82 -287
-169 -338 -215 -114 -102 -196 -247 -227 -400 -16 -78 -17 -197 -16 -1530 2
-1357 3 -1449 20 -1515 26 -100 88 -223 155 -302 54 -65 168 -156 248 -198 46
-24 222 -125 393 -225 69 -40 145 -84 170 -98 41 -23 670 -386 1451 -838 173
-100 343 -194 377 -208 201 -85 450 -70 642 37 30 17 123 70 207 118 83 49
167 97 185 107 144 83 388 223 458 265 47 27 110 63 140 80 30 16 62 36 71 43
8 8 18 14 21 14 3 0 61 32 129 72 68 39 180 104 249 143 69 40 211 121 315
182 105 60 271 156 370 212 305 175 371 225 457 346 34 46 70 118 97 190 37
99 38 130 36 1615 -1 1318 -2 1451 -18 1512 -37 147 -120 285 -231 382 -54 48
-297 196 -641 390 -22 13 -112 65 -200 116 -88 51 -176 102 -195 113 -19 11
-69 39 -110 62 -41 23 -127 73 -190 110 -63 37 -135 79 -160 93 -51 29 -687
396 -860 496 -154 90 -221 121 -313 144 -91 23 -240 26 -332 6z m268 -505 c23
-12 114 -63 202 -114 288 -167 656 -379 895 -517 363 -210 916 -529 1108 -640
95 -55 187 -112 203 -125 32 -27 67 -89 76 -132 3 -14 5 -654 6 -1421 l0
-1395 -22 -51 c-12 -29 -34 -63 -49 -77 -22 -21 -147 -97 -359 -218 -17 -10
-120 -69 -230 -132 -109 -63 -213 -123 -230 -133 -232 -134 -404 -234 -437
-253 -23 -13 -56 -32 -74 -43 -18 -10 -93 -53 -165 -95 -109 -63 -324 -187
-480 -276 -18 -11 -126 -73 -242 -140 -115 -66 -226 -126 -246 -133 -45 -16
-128 -10 -172 12 -17 9 -174 99 -347 199 -173 100 -335 193 -360 207 -50 28
-259 149 -360 208 -93 54 -486 282 -540 312 -25 14 -191 110 -370 213 -179
104 -342 198 -362 209 -84 45 -140 112 -155 185 -3 14 -6 654 -6 1421 l0 1395
22 50 c12 27 32 60 44 73 20 22 119 85 222 142 38 21 579 334 1163 672 151 87
275 158 277 158 1 0 44 25 94 55 51 30 94 55 97 55 3 0 18 8 32 19 15 10 47
29 72 43 25 14 128 73 229 132 102 58 187 106 191 106 3 0 12 6 18 13 7 6 34
20 60 29 59 21 138 16 195 -13z"/>
<path d="M3435 5830 c-50 -12 -99 -35 -227 -111 -68 -39 -139 -81 -158 -91
-19 -11 -118 -69 -220 -128 -102 -59 -230 -133 -285 -165 -55 -32 -113 -66
-130 -75 -119 -69 -653 -380 -710 -413 -38 -23 -88 -51 -110 -62 -64 -33 -123
-99 -140 -158 -22 -76 -21 -1194 1 -1271 20 -68 57 -145 84 -176 12 -14 25
-30 28 -35 18 -28 115 -97 187 -133 l80 -39 285 139 c179 88 313 147 360 160
96 25 240 34 309 19 144 -31 324 -132 491 -276 111 -95 259 -260 246 -273 -3
-2 -67 36 -143 86 -302 197 -470 263 -673 264 -141 0 -201 -18 -456 -142 -126
-61 -237 -115 -246 -120 -35 -19 -56 -30 -288 -144 -163 -80 -241 -123 -254
-142 -29 -41 -29 -131 -1 -191 36 -78 64 -97 390 -283 17 -10 140 -82 275
-160 135 -78 263 -153 285 -165 22 -13 108 -62 190 -110 83 -48 170 -99 195
-113 25 -13 50 -28 55 -32 6 -4 30 -19 55 -32 25 -14 124 -71 220 -128 207
-121 253 -145 300 -155 44 -10 113 -8 160 5 42 11 44 13 1055 600 403 233 354
205 605 350 207 119 249 151 283 215 22 39 22 48 24 555 3 573 1 593 -62 705
-50 89 -113 146 -277 245 -80 50 -149 90 -153 90 -7 0 -157 -71 -356 -169 -58
-29 -112 -53 -120 -55 -8 -1 -32 -8 -54 -14 -176 -49 -350 -32 -530 53 -197
94 -432 301 -506 448 l-20 39 20 -7 c12 -3 62 -35 113 -69 291 -198 480 -275
688 -281 158 -4 197 9 595 205 193 95 406 199 474 232 69 33 133 70 143 82 29
35 51 122 43 174 -16 109 -56 153 -232 252 -70 41 -139 81 -153 90 -14 10 -45
28 -70 42 -77 43 -1313 759 -1350 782 -115 74 -231 106 -315 86z"/>
</g>
</svg>
