<svg width="498" height="170" viewBox="0 0 498 170" fill="none" xmlns="http://www.w3.org/2000/svg">
<g clip-path="url(#clip0)">
<path d="M223.792 100.261C223.792 98.3057 223.094 96.7822 221.697 95.6904C220.326 94.5986 217.901 93.4688 214.423 92.3008C210.944 91.1328 208.101 90.0029 205.892 88.9111C198.706 85.3818 195.113 80.5322 195.113 74.3623C195.113 71.29 196.002 68.5859 197.779 66.25C199.582 63.8887 202.121 62.0605 205.396 60.7656C208.672 59.4453 212.354 58.7852 216.441 58.7852C220.428 58.7852 223.995 59.4961 227.144 60.918C230.317 62.3398 232.78 64.3711 234.532 67.0117C236.284 69.627 237.16 72.623 237.16 76H223.83C223.83 73.7402 223.132 71.9883 221.735 70.7441C220.364 69.5 218.498 68.8779 216.137 68.8779C213.75 68.8779 211.858 69.4111 210.462 70.4775C209.091 71.5186 208.405 72.8516 208.405 74.4766C208.405 75.8984 209.167 77.1934 210.69 78.3613C212.214 79.5039 214.893 80.6973 218.727 81.9414C222.561 83.1602 225.709 84.4805 228.172 85.9023C234.164 89.3555 237.16 94.1162 237.16 100.185C237.16 105.034 235.332 108.843 231.676 111.61C228.02 114.378 223.005 115.762 216.632 115.762C212.138 115.762 208.062 114.962 204.406 113.362C200.775 111.737 198.033 109.528 196.18 106.735C194.352 103.917 193.438 100.68 193.438 97.0234H206.844C206.844 99.9941 207.605 102.19 209.129 103.612C210.678 105.009 213.179 105.707 216.632 105.707C218.841 105.707 220.58 105.237 221.85 104.298C223.145 103.333 223.792 101.987 223.792 100.261Z" fill="#212529"/>
<path d="M260.243 115.762C253.921 115.762 248.805 113.883 244.895 110.125C240.984 106.342 239.029 101.429 239.029 95.3857V94.3193C239.029 90.1045 239.804 86.3848 241.353 83.1602C242.927 79.9355 245.212 77.4473 248.208 75.6953C251.204 73.918 254.759 73.0293 258.872 73.0293C264.661 73.0293 269.232 74.832 272.583 78.4375C275.935 82.0176 277.61 87.0195 277.61 93.4434V98.4326H252.093C252.55 100.743 253.553 102.559 255.102 103.879C256.651 105.199 258.656 105.859 261.119 105.859C265.182 105.859 268.356 104.438 270.641 101.594L276.506 108.525C274.906 110.734 272.634 112.499 269.689 113.819C266.769 115.114 263.62 115.762 260.243 115.762ZM258.796 82.9316C255.038 82.9316 252.804 85.4199 252.093 90.3965H265.042V89.4062C265.093 87.3496 264.572 85.7627 263.481 84.6455C262.389 83.5029 260.827 82.9316 258.796 82.9316Z" fill="#212529"/>
<path d="M293.229 115H280.356V56.5H293.229V115Z" fill="#212529"/>
<path d="M311.589 115H298.716V73.791H311.589V115ZM297.954 63.165C297.954 61.3369 298.615 59.8389 299.935 58.6709C301.255 57.5029 302.969 56.9189 305.077 56.9189C307.184 56.9189 308.898 57.5029 310.218 58.6709C311.538 59.8389 312.199 61.3369 312.199 63.165C312.199 64.9932 311.538 66.4912 310.218 67.6592C308.898 68.8271 307.184 69.4111 305.077 69.4111C302.969 69.4111 301.255 68.8271 299.935 67.6592C298.615 66.4912 297.954 64.9932 297.954 63.165Z" fill="#212529"/>
<path d="M328.541 73.791L328.959 78.6279C331.879 74.8955 335.802 73.0293 340.728 73.0293C345.933 73.0293 349.45 75.0986 351.278 79.2373C354.071 75.0986 358.108 73.0293 363.389 73.0293C371.743 73.0293 376.034 78.082 376.262 88.1875V115H363.389V88.9873C363.389 86.8799 363.034 85.3438 362.323 84.3789C361.612 83.4141 360.317 82.9316 358.438 82.9316C355.899 82.9316 354.007 84.0615 352.763 86.3213L352.801 86.8545V115H339.928V89.0635C339.928 86.9053 339.585 85.3438 338.9 84.3789C338.214 83.4141 336.907 82.9316 334.977 82.9316C332.514 82.9316 330.635 84.0615 329.34 86.3213V115H316.505V73.791H328.541Z" fill="#212529"/>
<path d="M390.662 109.021H416.941V115H383.311V59.5469H390.662V109.021Z" fill="#212529"/>
<path d="M446.499 115C446.092 114.188 445.762 112.74 445.509 110.658C442.233 114.061 438.323 115.762 433.778 115.762C429.716 115.762 426.377 114.619 423.761 112.334C421.172 110.023 419.877 107.104 419.877 103.574C419.877 99.2832 421.502 95.957 424.752 93.5957C428.027 91.209 432.623 90.0156 438.539 90.0156H445.394V86.7783C445.394 84.3154 444.658 82.3604 443.185 80.9131C441.713 79.4404 439.542 78.7041 436.673 78.7041C434.159 78.7041 432.051 79.3389 430.35 80.6084C428.649 81.8779 427.799 83.4141 427.799 85.2168H420.715C420.715 83.1602 421.438 81.1797 422.885 79.2754C424.358 77.3457 426.339 75.8223 428.827 74.7051C431.341 73.5879 434.095 73.0293 437.092 73.0293C441.84 73.0293 445.559 74.2227 448.251 76.6094C450.942 78.9707 452.339 82.2334 452.44 86.3975V105.364C452.44 109.147 452.923 112.156 453.887 114.391V115H446.499ZM434.806 109.63C437.015 109.63 439.11 109.059 441.091 107.916C443.071 106.773 444.506 105.288 445.394 103.46V95.0049H439.872C431.239 95.0049 426.923 97.5312 426.923 102.584C426.923 104.793 427.659 106.52 429.132 107.764C430.604 109.008 432.496 109.63 434.806 109.63Z" fill="#212529"/>
<path d="M495.252 94.8525C495.252 101.149 493.805 106.215 490.91 110.049C488.015 113.857 484.131 115.762 479.256 115.762C474.051 115.762 470.026 113.921 467.182 110.239L466.84 115H460.365V56.5H467.411V78.3232C470.255 74.7939 474.178 73.0293 479.18 73.0293C484.181 73.0293 488.104 74.9209 490.948 78.7041C493.817 82.4873 495.252 87.667 495.252 94.2432V94.8525ZM488.206 94.0527C488.206 89.2539 487.279 85.5469 485.426 82.9316C483.572 80.3164 480.906 79.0088 477.428 79.0088C472.781 79.0088 469.442 81.167 467.411 85.4834V103.308C469.569 107.624 472.933 109.782 477.504 109.782C480.881 109.782 483.509 108.475 485.388 105.859C487.266 103.244 488.206 99.3086 488.206 94.0527Z" fill="#212529"/>
<g clip-path="url(#clip1)">
<path d="M139.22 41.5718L82 8.5359C78.2872 6.3923 73.7128 6.39231 70 8.5359L12.7801 41.5718C9.06733 43.7154 6.78014 47.6769 6.78014 51.9641V118.036C6.78014 122.323 9.06733 126.285 12.7801 128.428L70 161.464C73.7128 163.608 78.2872 163.608 82 161.464L139.22 128.428C142.933 126.285 145.22 122.323 145.22 118.036V51.9641C145.22 47.6769 142.933 43.7154 139.22 41.5718Z" fill="white" stroke="url(#paint0_linear)" stroke-width="12"/>
<g filter="url(#filter0_i)">
<path d="M26 67.5C26 58.6634 33.1634 51.5 42 51.5H76.5L120.22 77.9967C123.808 80.1716 126 84.063 126 88.2591V102.5C126 111.337 118.837 118.5 110 118.5H76.5L32.5911 96.3282C28.549 94.2871 26 90.1445 26 85.6163V67.5Z" fill="url(#paint1_linear)"/>
<path d="M26 67.5C26 58.6634 33.1634 51.5 42 51.5H76.5L120.22 77.9967C123.808 80.1716 126 84.063 126 88.2591V102.5C126 111.337 118.837 118.5 110 118.5H76.5L32.5911 96.3282C28.549 94.2871 26 90.1445 26 85.6163V67.5Z" fill="#212529" fill-opacity="0.16"/>
</g>
<path fill-rule="evenodd" clip-rule="evenodd" d="M80.0137 29.328C77.5316 27.8884 74.4684 27.8884 71.9863 29.328L29.0276 54.2441C27.2987 55.2468 26.183 57.0289 26.0206 59.0001H26V59.5001V71.5001C26 71.5001 33.6209 62.1926 47.5 60.0001C58.7081 58.2294 66.7916 63.7492 74.6521 69.1167C81.1687 73.5665 87.5321 77.9117 95.3957 77.9117C98.8654 77.9117 101.848 76.9982 104 75.7501V75.7601L122.972 64.7561C124.846 63.6691 126 61.6665 126 59.5001C126 57.3336 124.846 55.331 122.972 54.2441L80.0137 29.328ZM71.9863 140.584C74.4684 142.023 77.5316 142.023 80.0137 140.584L122.972 115.668C124.701 114.665 125.817 112.883 125.979 110.912H126V110.412V98.4118C126 98.4118 118.379 107.719 104.5 109.912C93.2919 111.682 85.2084 106.163 77.3479 100.795C70.8313 96.3453 64.4679 92.0001 56.6043 92.0001C53.1346 92.0001 50.1519 92.9136 48 94.1617V94.1517L29.0276 105.156C27.1535 106.243 26 108.245 26 110.412C26 112.578 27.1535 114.581 29.0276 115.668L71.9863 140.584Z" fill="url(#paint2_linear)"/>
</g>
</g>
<defs>
<filter id="filter0_i" x="26" y="51.5" width="100" height="67" filterUnits="userSpaceOnUse" color-interpolation-filters="sRGB">
<feFlood flood-opacity="0" result="BackgroundImageFix"/>
<feBlend mode="normal" in="SourceGraphic" in2="BackgroundImageFix" result="shape"/>
<feColorMatrix in="SourceAlpha" type="matrix" values="0 0 0 0 0 0 0 0 0 0 0 0 0 0 0 0 0 0 127 0" result="hardAlpha"/>
<feOffset/>
<feGaussianBlur stdDeviation="16"/>
<feComposite in2="hardAlpha" operator="arithmetic" k2="-1" k3="1"/>
<feColorMatrix type="matrix" values="0 0 0 0 0 0 0 0 0 0 0 0 0 0 0 0 0 0 0.12 0"/>
<feBlend mode="normal" in2="shape" result="effect1_innerShadow"/>
</filter>
<linearGradient id="paint0_linear" x1="76" y1="12" x2="76" y2="158" gradientUnits="userSpaceOnUse">
<stop stop-color="#20FF9C"/>
<stop offset="1" stop-color="#20B5FF"/>
</linearGradient>
<linearGradient id="paint1_linear" x1="76" y1="51.5" x2="76" y2="118.5" gradientUnits="userSpaceOnUse">
<stop stop-color="#20FF9C"/>
<stop offset="1" stop-color="#20B5FF"/>
</linearGradient>
<linearGradient id="paint2_linear" x1="76" y1="28.2483" x2="76" y2="141.664" gradientUnits="userSpaceOnUse">
<stop stop-color="#20FF9C"/>
<stop offset="1" stop-color="#20B5FF"/>
</linearGradient>
<clipPath id="clip0">
<rect width="498" height="170" fill="white"/>
</clipPath>
<clipPath id="clip1">
<rect width="170" height="170" fill="white" transform="translate(-9)"/>
</clipPath>
</defs>
</svg>
