<?xml version="1.0" encoding="UTF-8"?>
<svg width="32px" height="32px" viewBox="0 0 32 32" version="1.1" xmlns="http://www.w3.org/2000/svg" xmlns:xlink="http://www.w3.org/1999/xlink">
    <!-- Generator: Sketch 58 (84663) - https://sketch.com -->
    <title>icon/li</title>
    <desc>Created with Sketch.</desc>
    <g id="icon/li" stroke="none" stroke-width="1" fill="none" fill-rule="evenodd">
        <g id="icon-li">
            <rect id="Rectangle" x="0" y="0" width="32" height="32"></rect>
            <polygon id="Path" fill="#FFFFFF" fill-rule="nonzero" points="8.67055265 28.8998875 3.50805425 28.8998875 3.50805425 10.8782859 8.67037133 10.8782859 8.67037133 28.8998875"></polygon>
            <path d="M6.14025393,8.82322277 C4.4086629,8.82322277 3,7.51700478 3,5.91161139 C3,4.30621799 4.40884422,3 6.14025393,3 C7.87166364,3 9.28050786,4.30621799 9.28050786,5.91161139 C9.28050786,7.51700478 7.87166364,8.82322277 6.14025393,8.82322277 Z" id="Path" fill="#FFFFFF" fill-rule="nonzero"></path>
            <path d="M28.7978052,28.8998875 L23.5083839,28.8998875 L23.5083839,18.2118912 C23.5094718,18.190133 23.5867135,16.4933551 22.6246379,15.4797851 C22.1457759,14.9751759 21.4861394,14.7193356 20.6638604,14.7193356 C18.5953797,14.7193356 17.5506229,16.2086852 17.1078433,17.1107444 L17.1078433,28.8998875 L11.9453449,28.8998875 L11.9453449,10.8782859 L17.1076619,10.8782859 L17.1076619,12.4008168 C18.7975497,11.0298681 20.6954098,10.3065889 22.6079566,10.3065889 C27.5040982,10.3065889 28.7978052,14.1311386 28.7978052,16.153383 L28.7978052,28.8998875 Z" id="Path" fill="#FFFFFF" fill-rule="nonzero"></path>
        </g>
    </g>
</svg>